<svg width="675" height="275" viewBox="0 0 675 275" fill="none" xmlns="http://www.w3.org/2000/svg">
<g clip-path="url(#clip0_211:3318)">
<path d="M335.644 275C520.871 275 671.027 265.07 671.027 252.821C671.027 240.572 520.871 230.642 335.644 230.642C150.417 230.642 0.260742 240.572 0.260742 252.821C0.260742 265.07 150.417 275 335.644 275Z" fill="#224E40"/>
<path d="M322.789 10.0209C268.146 10.0209 228.913 45.0402 228.913 126.752C228.913 219.358 268.146 243.872 322.789 243.872C377.432 243.872 419.003 217.024 419.003 126.752C419.003 30.2542 377.432 10.0209 322.789 10.0209ZM323.148 213.133C285.301 213.133 265.529 190.953 265.529 126.812C265.529 70.2162 286.111 40.3709 323.958 40.3709C361.805 40.3709 382.387 59.9752 382.387 126.812C382.387 189.336 360.995 213.133 323.148 213.133Z" fill="white"/>
<path d="M196.193 179.281H173.6V112.824C173.6 109.294 172.197 105.909 169.698 103.413C167.199 100.917 163.81 99.5145 160.277 99.5145H154.983C153.233 99.5145 151.501 99.8588 149.884 100.528C148.268 101.196 146.799 102.177 145.562 103.413C144.324 104.649 143.343 106.116 142.673 107.73C142.004 109.345 141.659 111.076 141.659 112.824V179.281H77.9331C76.6222 179.281 75.3334 178.942 74.192 178.298C73.0505 177.654 72.0951 176.726 71.4185 175.604C70.7418 174.483 70.3668 173.206 70.3299 171.896C70.293 170.587 70.5955 169.291 71.2079 168.133L138.655 40.6167C139.496 39.0269 140.005 37.2834 140.153 35.4914C140.301 33.6994 140.083 31.8961 139.514 30.1903C138.945 28.4845 138.036 26.9117 136.841 25.5666C135.646 24.2216 134.191 23.1323 132.564 22.3645L128.582 20.4864C125.49 19.0281 121.956 18.8127 118.71 19.885C115.464 20.9572 112.754 23.2349 111.143 26.2468L28.8822 179.963C27.4814 182.58 26.7485 185.503 26.7485 188.471C26.7485 190.841 27.2158 193.187 28.1238 195.377C29.0317 197.567 30.3625 199.556 32.0402 201.232C33.7178 202.908 35.7095 204.237 37.9014 205.144C40.0934 206.051 42.4427 206.518 44.8153 206.518H141.659V248.541C141.659 250.636 142.072 252.71 142.875 254.646C143.677 256.581 144.854 258.34 146.337 259.822C147.82 261.303 149.58 262.478 151.518 263.28C153.456 264.081 155.533 264.494 157.63 264.494C159.727 264.494 161.804 264.081 163.742 263.28C165.679 262.478 167.44 261.303 168.923 259.822C170.406 258.34 171.582 256.581 172.385 254.646C173.187 252.71 173.6 250.636 173.6 248.541V206.518H196.193C199.809 206.518 203.277 205.083 205.833 202.529C208.39 199.975 209.827 196.511 209.827 192.899C209.827 189.287 208.39 185.823 205.833 183.269C203.277 180.715 199.809 179.281 196.193 179.281Z" fill="#0FDAA0"/>
<path d="M614.546 179.281H591.953V112.824C591.953 109.294 590.55 105.909 588.051 103.413C585.552 100.917 582.163 99.5145 578.63 99.5145H573.336C571.586 99.5145 569.854 99.8588 568.237 100.528C566.621 101.196 565.152 102.177 563.915 103.413C562.677 104.649 561.696 106.116 561.026 107.73C560.357 109.345 560.012 111.076 560.012 112.824V179.281H496.286C494.975 179.281 493.686 178.942 492.545 178.298C491.404 177.654 490.448 176.726 489.771 175.604C489.095 174.483 488.72 173.206 488.683 171.896C488.646 170.587 488.948 169.291 489.561 168.133L557.008 40.6168C557.849 39.027 558.358 37.2834 558.506 35.4914C558.654 33.6994 558.436 31.8961 557.867 30.1903C557.298 28.4845 556.389 26.9117 555.194 25.5666C553.999 24.2216 552.544 23.1323 550.917 22.3645L546.935 20.4864C543.843 19.0281 540.309 18.8127 537.063 19.885C533.817 20.9572 531.107 23.2349 529.496 26.2468L447.235 179.963C445.834 182.58 445.102 185.503 445.102 188.471V188.471C445.102 193.257 447.005 197.847 450.393 201.232C453.781 204.616 458.377 206.518 463.168 206.518H560.012V248.541C560.012 252.772 561.695 256.83 564.69 259.822C567.685 262.813 571.747 264.494 575.983 264.494V264.494C580.218 264.494 584.281 262.813 587.276 259.822C590.271 256.83 591.953 252.772 591.953 248.541V206.518H614.546C618.162 206.518 621.63 205.083 624.186 202.529C626.743 199.975 628.179 196.511 628.179 192.899V192.899C628.179 189.287 626.743 185.823 624.186 183.269C621.63 180.715 618.162 179.281 614.546 179.281Z" fill="#0FDAA0"/>
<path d="M202.425 171.499H179.833V105.042C179.833 103.294 179.488 101.563 178.819 99.9484C178.149 98.3336 177.168 96.8664 175.93 95.6306C174.693 94.3947 173.224 93.4144 171.608 92.7455C169.991 92.0767 168.259 91.7324 166.509 91.7324H161.215C157.682 91.7324 154.293 93.1346 151.794 95.6306C149.295 98.1265 147.892 101.512 147.892 105.042V171.499H84.1655C82.8546 171.499 81.5658 171.16 80.4244 170.516C79.283 169.872 78.3275 168.944 77.6509 167.822C76.9742 166.701 76.5992 165.423 76.5623 164.114C76.5254 162.805 76.8279 161.509 77.4403 160.351L144.887 32.8347C145.728 31.2449 146.238 29.5013 146.386 27.7093C146.533 25.9173 146.316 24.114 145.747 22.4082C145.177 20.7024 144.268 19.1296 143.073 17.7845C141.879 16.4395 140.424 15.3502 138.796 14.5824L134.815 12.7043C131.723 11.246 128.188 11.0306 124.942 12.1029C121.696 13.1751 118.987 15.4528 117.375 18.4647L35.1146 172.181C33.7138 174.798 32.981 177.721 32.981 180.689V180.689C32.981 185.475 34.8844 190.065 38.2726 193.45C41.6607 196.834 46.2561 198.736 51.0477 198.736H147.892V240.759C147.892 242.854 148.305 244.928 149.107 246.864C149.91 248.799 151.086 250.558 152.569 252.039C154.052 253.521 155.813 254.696 157.751 255.498C159.688 256.299 161.765 256.712 163.862 256.712H163.862C168.098 256.712 172.16 255.031 175.155 252.039C178.15 249.048 179.833 244.99 179.833 240.759V198.736H202.425C204.216 198.736 205.989 198.383 207.643 197.699C209.297 197.015 210.8 196.012 212.066 194.747C213.332 193.482 214.336 191.981 215.021 190.329C215.706 188.676 216.059 186.906 216.059 185.117V185.117C216.059 183.329 215.706 181.558 215.021 179.906C214.336 178.253 213.332 176.752 212.066 175.487C210.8 174.223 209.297 173.22 207.643 172.535C205.989 171.851 204.216 171.499 202.425 171.499V171.499Z" stroke="#3F3D56" stroke-miterlimit="10"/>
<path d="M626.232 171.499H603.64V105.042C603.64 101.512 602.236 98.1265 599.737 95.6306C597.238 93.1346 593.849 91.7324 590.316 91.7324H585.022C583.272 91.7324 581.54 92.0767 579.923 92.7455C578.307 93.4144 576.838 94.3947 575.601 95.6306C574.363 96.8664 573.382 98.3336 572.712 99.9484C572.043 101.563 571.698 103.294 571.698 105.042V171.499H507.972C506.661 171.499 505.372 171.16 504.231 170.516C503.09 169.872 502.134 168.944 501.458 167.822C500.781 166.701 500.406 165.423 500.369 164.114C500.332 162.805 500.635 161.509 501.247 160.351L568.694 32.8347C569.535 31.2449 570.044 29.5013 570.192 27.7093C570.34 25.9173 570.123 24.114 569.553 22.4082C568.984 20.7024 568.075 19.1296 566.88 17.7845C565.685 16.4395 564.23 15.3502 562.603 14.5824L558.621 12.7043C555.53 11.246 551.995 11.0306 548.749 12.1029C545.503 13.1751 542.793 15.4528 541.182 18.4647L458.921 172.181C457.52 174.798 456.788 177.721 456.788 180.689C456.788 185.475 458.691 190.065 462.079 193.45C465.467 196.834 470.063 198.736 474.854 198.736H571.698V240.759C571.698 244.99 573.381 249.048 576.376 252.039C579.371 255.031 583.433 256.712 587.669 256.712V256.712C591.905 256.712 595.967 255.031 598.962 252.039C601.957 249.048 603.639 244.99 603.639 240.759V198.736H626.232C628.022 198.736 629.795 198.383 631.449 197.699C633.103 197.015 634.606 196.012 635.872 194.747C637.138 193.482 638.143 191.981 638.828 190.329C639.513 188.676 639.866 186.906 639.866 185.117V185.117C639.866 181.505 638.429 178.041 635.872 175.487C633.316 172.933 629.848 171.499 626.232 171.499V171.499Z" stroke="#3F3D56" stroke-miterlimit="10"/>
<path d="M335.255 3.01709C280.612 3.01709 241.378 38.0364 241.378 119.748C241.378 212.354 280.612 236.868 335.255 236.868C389.898 236.868 431.468 210.02 431.468 119.748C431.468 23.2504 389.898 3.01709 335.255 3.01709ZM335.614 206.129C297.767 206.129 277.994 183.949 277.994 119.808C277.994 63.2124 298.576 33.3671 336.423 33.3671C374.27 33.3671 394.852 52.9714 394.852 119.808C394.852 182.332 373.461 206.129 335.614 206.129V206.129Z" stroke="#3F3D56" stroke-miterlimit="10"/>
</g>
<defs>
<clipPath id="clip0_211:3318">
<rect width="675" height="275" fill="white"/>
</clipPath>
</defs>
</svg>
