<svg width="250" height="191" viewBox="0 0 250 191" fill="none" xmlns="http://www.w3.org/2000/svg">
<g clip-path="url(#clip0_211:3275)">
<path d="M100.037 39.5823H99.1252V14.5108C99.1252 12.6052 98.7511 10.7183 98.0245 8.95774C97.2978 7.19721 96.2326 5.59756 94.8899 4.25011C93.5471 2.90266 91.953 1.83381 90.1986 1.10457C88.4442 0.375336 86.5639 1.61456e-06 84.6649 0H31.7322C27.8971 -7.33654e-06 24.2191 1.52879 21.5073 4.25008C18.7955 6.97136 17.272 10.6622 17.272 14.5107V152.055C17.272 153.961 17.646 155.848 18.3727 157.608C19.0994 159.369 20.1645 160.969 21.5073 162.316C22.85 163.663 24.4441 164.732 26.1985 165.462C27.9529 166.191 29.8333 166.566 31.7322 166.566H84.6649C88.5 166.566 92.178 165.037 94.8898 162.316C97.6016 159.595 99.1251 155.904 99.1252 152.055V57.4287H100.037V39.5823Z" fill="#3F3D56"/>
<path d="M85.2486 3.77515H78.3391C78.6568 4.55688 78.7781 5.40504 78.6923 6.2449C78.6064 7.08476 78.3161 7.89054 77.8468 8.59127C77.3775 9.29199 76.7437 9.86615 76.0012 10.2632C75.2587 10.6602 74.4303 10.8679 73.589 10.8679H43.2645C42.4232 10.8679 41.5948 10.6602 40.8523 10.2632C40.1098 9.86616 39.476 9.292 39.0067 8.59127C38.5374 7.89055 38.2471 7.08476 38.1612 6.2449C38.0754 5.40504 38.1967 4.55688 38.5144 3.77515H32.061C30.6429 3.77515 29.2386 4.05544 27.9285 4.60002C26.6183 5.1446 25.4279 5.94281 24.4251 6.94907C23.4223 7.95533 22.6269 9.14993 22.0842 10.4647C21.5415 11.7794 21.2622 13.1885 21.2622 14.6116V151.954C21.2622 153.377 21.5415 154.787 22.0842 156.101C22.6269 157.416 23.4223 158.611 24.4251 159.617C25.4278 160.623 26.6183 161.421 27.9285 161.966C29.2386 162.511 30.6428 162.791 32.061 162.791H85.2486C86.6667 162.791 88.0709 162.511 89.3811 161.966C90.6912 161.421 91.8817 160.623 92.8844 159.617C93.8872 158.611 94.6826 157.416 95.2253 156.101C95.768 154.787 96.0473 153.377 96.0473 151.954V14.6116C96.0473 13.1885 95.768 11.7794 95.2253 10.4647C94.6826 9.14993 93.8872 7.95533 92.8844 6.94907C91.8817 5.94281 90.6912 5.1446 89.3811 4.60002C88.0709 4.05544 86.6667 3.77514 85.2486 3.77515Z" fill="white"/>
<path d="M117.003 166.59H0.306292C0.225058 166.59 0.147151 166.557 0.0897105 166.5C0.0322697 166.442 0 166.364 0 166.282C0 166.201 0.0322697 166.123 0.0897105 166.065C0.147151 166.007 0.225058 165.975 0.306292 165.975H117.003C117.085 165.975 117.163 166.007 117.22 166.065C117.277 166.123 117.31 166.201 117.31 166.282C117.31 166.364 117.277 166.442 117.22 166.5C117.163 166.557 117.085 166.59 117.003 166.59Z" fill="#CBCBCB"/>
<path d="M58.6547 106.249C72.9397 106.249 84.5199 94.628 84.5199 80.2932C84.5199 65.9583 72.9397 54.3376 58.6547 54.3376C44.3698 54.3376 32.7896 65.9583 32.7896 80.2932C32.7896 94.628 44.3698 106.249 58.6547 106.249Z" fill="#F04B4B"/>
<path d="M212.642 169.141C212.956 168.63 213.327 168.157 213.746 167.729C213.919 167.549 214.101 167.379 214.289 167.214C215.433 166.193 216.827 165.495 218.328 165.194C219.83 164.892 221.384 164.997 222.831 165.498C224.278 165.999 225.567 166.878 226.563 168.044C227.56 169.211 228.229 170.622 228.502 172.134C229.765 167.446 226.477 162.828 223.171 159.282C219.863 155.736 216.082 151.846 216.101 146.988C216.11 144.284 217.428 141.872 219.418 140.084C219.479 140.03 219.541 139.976 219.603 139.924C222.008 137.855 225.102 136.773 228.268 136.894C234.148 137.21 239.283 141.176 242.849 145.88C248.588 153.45 251.103 164.075 247.085 172.692C243.551 180.27 236.013 184.77 228.32 188.388C227.246 188.893 226.174 189.384 225.104 189.858C225.097 189.86 225.089 189.865 225.082 189.867C225.031 189.89 224.979 189.913 224.931 189.936C224.71 190.034 224.489 190.132 224.27 190.228L224.372 190.295L224.688 190.5C224.578 190.434 224.47 190.369 224.36 190.302C224.327 190.282 224.293 190.263 224.26 190.243C220.482 187.968 216.651 185.561 214.041 182.009C211.334 178.322 210.245 173.039 212.642 169.141Z" fill="#F1F1F1"/>
<path d="M237.85 160.577C238.687 162.487 239.242 164.509 239.497 166.579C239.697 168.426 239.622 170.292 239.273 172.116C238.523 175.864 236.886 179.376 234.502 182.358C232.703 184.621 230.626 186.647 228.32 188.388C227.246 188.893 226.174 189.384 225.104 189.858C225.097 189.86 225.089 189.865 225.082 189.867C225.031 189.89 224.979 189.913 224.931 189.936C224.71 190.034 224.489 190.132 224.27 190.228L224.372 190.295L224.688 190.5C224.578 190.434 224.47 190.369 224.36 190.302C224.327 190.282 224.293 190.263 224.26 190.243C225.092 187.324 225.214 184.248 224.617 181.272C224.02 178.296 222.72 175.507 220.828 173.139C218.925 170.801 216.499 168.947 213.746 167.729C213.919 167.549 214.101 167.379 214.289 167.214C215.35 167.703 216.365 168.284 217.323 168.952C220.749 171.329 223.322 174.749 224.661 178.708C225.856 182.299 226.005 186.157 225.091 189.831C225.281 189.706 225.471 189.578 225.656 189.451C229.176 187.069 232.42 184.209 234.864 180.701C236.971 177.736 238.32 174.296 238.791 170.685C239.259 166.741 238.276 162.862 236.521 159.342C234.583 155.577 232.141 152.095 229.263 148.993C226.372 145.806 223.104 142.986 219.53 140.596C219.45 140.541 219.393 140.458 219.372 140.362C219.351 140.267 219.368 140.168 219.418 140.084C219.456 140.008 219.523 139.951 219.603 139.924C219.644 139.913 219.687 139.912 219.728 139.92C219.77 139.929 219.809 139.947 219.842 139.972C220.283 140.268 220.721 140.565 221.153 140.872C224.751 143.429 228.02 146.425 230.882 149.791C233.648 153.035 236.166 156.639 237.85 160.577Z" fill="white"/>
<path d="M160.816 12.0518C163.85 12.0518 166.309 9.5839 166.309 6.53958C166.309 3.49526 163.85 1.02734 160.816 1.02734C157.783 1.02734 155.323 3.49526 155.323 6.53958C155.323 9.5839 157.783 12.0518 160.816 12.0518Z" fill="#F04B4B"/>
<path d="M229.119 85.8185C230.969 85.8185 232.468 84.3138 232.468 82.4578C232.468 80.6017 230.969 79.097 229.119 79.097C227.269 79.097 225.77 80.6017 225.77 82.4578C225.77 84.3138 227.269 85.8185 229.119 85.8185Z" fill="#F04B4B"/>
<path d="M131.106 95.0394C132.955 95.0394 134.455 93.5347 134.455 91.6787C134.455 89.8226 132.955 88.318 131.106 88.318C129.256 88.318 127.757 89.8226 127.757 91.6787C127.757 93.5347 129.256 95.0394 131.106 95.0394Z" fill="#F04B4B"/>
<path d="M132.997 190.871H249.694C249.775 190.871 249.853 190.839 249.91 190.781C249.968 190.724 250 190.645 250 190.564C250 190.482 249.968 190.404 249.91 190.347C249.853 190.289 249.775 190.257 249.694 190.257H132.997C132.915 190.257 132.838 190.289 132.78 190.347C132.723 190.404 132.69 190.482 132.69 190.564C132.69 190.645 132.723 190.724 132.78 190.781C132.838 190.839 132.915 190.871 132.997 190.871Z" fill="#CBCBCB"/>
<path d="M219.955 116.42C220.981 116.824 222.119 116.84 223.154 116.463C224.189 116.087 225.049 115.344 225.571 114.377C226.093 113.41 226.24 112.285 225.986 111.216C225.731 110.146 225.092 109.206 224.189 108.574L215.81 96.8204L207.589 97.7016L217.74 109.937C217.4 110.494 217.188 111.12 217.117 111.768C217.046 112.417 217.119 113.074 217.33 113.692C217.541 114.31 217.886 114.874 218.339 115.346C218.793 115.817 219.345 116.184 219.955 116.42Z" fill="#FFB7B7"/>
<path d="M188.713 71.0287L216.105 108.058L223.527 105.117L197.788 60.2664L188.713 71.0287Z" fill="#22577A"/>
<path d="M190.547 51.6367C196.636 51.6367 201.573 46.6828 201.573 40.5717C201.573 34.4607 196.636 29.5067 190.547 29.5067C184.457 29.5067 179.52 34.4607 179.52 40.5717C179.52 46.6828 184.457 51.6367 190.547 51.6367Z" fill="#2F2E41"/>
<path d="M191.433 34.321C193.806 31.9065 196.677 30.0432 199.845 28.8625C201.878 28.1065 204.091 27.6395 206.217 28.0688C208.343 28.4981 210.353 29.9738 210.946 32.0669C211.431 33.7784 210.931 35.6211 210.178 37.2322C209.425 38.8434 208.421 40.3374 207.812 42.0086C207.191 43.7139 207.004 45.5477 207.269 47.3438C207.533 49.1398 208.24 50.8412 209.326 52.2934C210.412 53.7455 211.842 54.9026 213.487 55.6594C215.131 56.4163 216.938 56.749 218.743 56.6274C216.655 56.9085 214.729 57.8934 212.688 58.4177C210.646 58.942 208.236 58.9065 206.719 57.4387C205.114 55.8858 205.082 53.3609 205.159 51.1248C205.275 47.8007 205.39 44.4766 205.506 41.1524C205.564 39.4572 205.615 37.7076 205.005 36.1254C204.396 34.5431 202.948 33.1576 201.258 33.172C199.977 33.1829 198.843 33.9617 197.816 34.7297C196.788 35.4977 195.701 36.3172 194.425 36.4314C193.149 36.5456 191.692 35.598 191.787 34.316L191.433 34.321Z" fill="#2F2E41"/>
<path d="M148.667 114.868C147.608 115.163 146.478 115.058 145.492 114.573C144.505 114.088 143.73 113.257 143.313 112.237C142.896 111.217 142.867 110.079 143.23 109.039C143.594 107.998 144.325 107.128 145.285 106.592L154.811 95.7474L162.868 97.4942L151.536 108.632C151.815 109.225 151.961 109.871 151.963 110.526C151.966 111.18 151.826 111.828 151.552 112.422C151.279 113.017 150.878 113.544 150.38 113.967C149.881 114.389 149.296 114.697 148.667 114.868H148.667Z" fill="#FFB7B7"/>
<path d="M180.007 76.0428L156.264 105.949L149.027 102.615L176.934 59.0171L180.007 76.0428Z" fill="#22577A"/>
<path d="M161.063 166.347L155.404 166.258L156.085 185.611H161.062L161.063 166.347Z" fill="#FFB7B7"/>
<path d="M162.332 183.981L152.53 183.981H152.53C150.873 183.981 149.284 184.641 148.113 185.817C146.941 186.992 146.283 188.586 146.283 190.249V190.452L162.331 190.453L162.332 183.981Z" fill="#2F2E41"/>
<path d="M198.527 161.214L192.346 165.197L204.711 180.124L208.899 177.425L198.527 161.214Z" fill="#FFB7B7"/>
<path d="M209.089 175.365L200.841 180.679L200.841 180.679C199.447 181.577 198.465 182.994 198.113 184.618C197.76 186.243 198.064 187.941 198.959 189.34L199.069 189.511L212.573 180.811L209.089 175.365Z" fill="#2F2E41"/>
<path d="M200.73 102.118C200.73 102.118 186.996 56.3432 182.582 55.7246C178.168 55.106 171.057 67.4698 171.057 67.4698C161.837 79.275 152.329 117.515 152.329 117.515C152.329 117.515 168.179 118.51 179.765 124.696C191.351 130.881 205.024 124.383 205.024 124.383L200.73 102.118Z" fill="#22577A"/>
<path opacity="0.1" d="M200.73 102.118C200.73 102.118 186.996 56.3432 182.582 55.7246C178.168 55.1061 172.863 67.5953 172.863 67.5953C168.269 86.6517 152.329 117.515 152.329 117.515C152.329 117.515 168.179 118.51 179.765 124.696C191.351 130.881 205.024 124.383 205.024 124.383L200.73 102.118Z" fill="black"/>
<path d="M189.462 88.4224V111.424L192.16 144.743L205.636 169.947L199.204 174.557L180.827 150.583L173.558 126.778L162.143 179.475L153.567 178.86L159.523 105.797L170.826 85.2313L189.462 88.4224Z" fill="#2F2E41"/>
<path d="M175.615 66.1748C171.327 70.4778 175.308 75.0883 175.308 75.0883L170.408 86.1533L189.704 91.3784L196.448 61.1407L191.853 56.2229C182.664 55.9156 182.659 55.7245 182.659 55.7245C181.049 57.3055 175.615 66.1748 175.615 66.1748Z" fill="#468873"/>
<path d="M197.224 58.0082C196.348 57.359 195.352 56.8908 194.294 56.6306C193.236 56.3705 192.137 56.3235 191.061 56.4926C189.984 56.6616 188.952 57.0433 188.024 57.6154C187.096 58.1875 186.29 58.9388 185.653 59.8256C180.802 66.6037 176.317 77.5485 182.497 91.1986C192.421 113.116 201.056 124.337 204.567 124.335C204.72 124.337 204.873 124.313 205.018 124.264C207.179 123.529 210.304 119.859 210.869 116.626C211.072 115.468 211.024 113.856 209.644 112.749C205.682 109.569 198.569 99.6672 196.351 86.6344C195.124 79.433 197.502 72.8732 199.713 68.6384C200.647 66.8862 200.92 64.8549 200.482 62.917C200.045 60.9791 198.926 59.2643 197.331 58.087L197.224 58.0082Z" fill="#22577A"/>
<path d="M191.114 50.5496C195.047 48.3919 196.493 43.443 194.343 39.4958C192.192 35.5486 187.261 34.098 183.327 36.2557C179.394 38.4134 177.948 43.3624 180.098 47.3096C182.249 51.2567 187.18 52.7073 191.114 50.5496Z" fill="#FFB7B7"/>
<path d="M175.806 42.7869H187.526L187.646 41.0984L188.247 42.7869H190.052L190.29 39.4402L191.481 42.7869H194.973V42.6211C194.971 40.2912 194.047 38.0574 192.405 36.4099C190.763 34.7624 188.537 33.8356 186.216 33.833H184.563C182.241 33.8356 180.015 34.7624 178.374 36.4099C176.732 38.0574 175.808 40.2912 175.806 42.6211V42.7869Z" fill="#2F2E41"/>
<path d="M193.202 48.8564L198.204 47.2278V35.0392H188.756L188.99 35.2735C192.244 38.5349 195.864 50.1059 193.202 48.8564Z" fill="#2F2E41"/>
<path d="M64.48 86.16C64.6933 86.4133 64.8 86.6667 64.8 86.92C64.8 87.24 64.6733 87.52 64.42 87.76C64.18 88 63.9 88.12 63.58 88.12C63.2467 88.12 62.9533 87.9733 62.7 87.68L58.64 82.64L54.56 87.68C54.32 87.96 54.0333 88.1 53.7 88.1C53.38 88.1 53.0933 87.9867 52.84 87.76C52.6 87.52 52.48 87.24 52.48 86.92C52.48 86.6533 52.58 86.4 52.78 86.16L57.14 80.84L52.96 75.74C52.76 75.5267 52.66 75.2733 52.66 74.98C52.66 74.66 52.78 74.3867 53.02 74.16C53.26 73.92 53.54 73.8 53.86 73.8C54.1933 73.8 54.4867 73.9467 54.74 74.24L58.64 79.06L62.54 74.24C62.78 73.9467 63.0667 73.8 63.4 73.8C63.72 73.8 64 73.92 64.24 74.16C64.4933 74.3867 64.62 74.66 64.62 74.98C64.62 75.2733 64.52 75.5267 64.32 75.74L60.14 80.84L64.48 86.16Z" fill="white"/>
</g>
<defs>
<clipPath id="clip0_211:3275">
<rect width="250" height="190.871" fill="white"/>
</clipPath>
</defs>
</svg>
